<?xml version="1.0" encoding="UTF-8" standalone="no"?>
<svg
   xmlns:dc="http://purl.org/dc/elements/1.1/"
   xmlns:cc="http://creativecommons.org/ns#"
   xmlns:rdf="http://www.w3.org/1999/02/22-rdf-syntax-ns#"
   xmlns:svg="http://www.w3.org/2000/svg"
   xmlns="http://www.w3.org/2000/svg"
   xmlns:sodipodi="http://sodipodi.sourceforge.net/DTD/sodipodi-0.dtd"
   xmlns:inkscape="http://www.inkscape.org/namespaces/inkscape"
   viewBox="0 -256 1792 1792"
   id="svg3643"
   version="1.1"
   inkscape:version="0.91 r13725"
   width="100%"
   height="100%"
   sodipodi:docname="truck-white.svg">
  <metadata
     id="metadata3653">
    <rdf:RDF>
      <cc:Work
         rdf:about="">
        <dc:format>image/svg+xml</dc:format>
        <dc:type
           rdf:resource="http://purl.org/dc/dcmitype/StillImage" />
        <dc:title></dc:title>
      </cc:Work>
    </rdf:RDF>
  </metadata>
  <defs
     id="defs3651" />
  <sodipodi:namedview
     pagecolor="#ffffff"
     bordercolor="#666666"
     borderopacity="1"
     objecttolerance="10"
     gridtolerance="10"
     guidetolerance="10"
     inkscape:pageopacity="0"
     inkscape:pageshadow="2"
     inkscape:window-width="1600"
     inkscape:window-height="847"
     id="namedview3649"
     showgrid="false"
     inkscape:zoom="0.13169643"
     inkscape:cx="896.00001"
     inkscape:cy="896.00001"
     inkscape:window-x="-8"
     inkscape:window-y="-8"
     inkscape:window-maximized="1"
     inkscape:current-layer="svg3643" />
  <g
     transform="matrix(1,0,0,-1,-30.372881,1224.678)"
     id="g3645">
    <path
       d="m 640,128 q 0,52 -38,90 -38,38 -90,38 -52,0 -90,-38 -38,-38 -38,-90 0,-52 38,-90 38,-38 90,-38 52,0 90,38 38,38 38,90 z M 256,640 H 640 V 896 H 482 q -13,0 -22,-9 L 265,692 q -9,-9 -9,-22 V 640 z M 1536,128 q 0,52 -38,90 -38,38 -90,38 -52,0 -90,-38 -38,-38 -38,-90 0,-52 38,-90 38,-38 90,-38 52,0 90,38 38,38 38,90 z m 256,1088 V 192 q 0,-15 -4,-26.5 -4,-11.5 -13.5,-18.5 -9.5,-7 -16.5,-11.5 -7,-4.5 -23.5,-6 -16.5,-1.5 -22.5,-2 -6,-0.5 -25.5,0 -19.5,0.5 -22.5,0.5 0,-106 -75,-181 -75,-75 -181,-75 -106,0 -181,75 -75,75 -75,181 H 768 q 0,-106 -75,-181 -75,-75 -181,-75 -106,0 -181,75 -75,75 -75,181 h -64 q -3,0 -22.5,-0.5 -19.5,-0.5 -25.5,0 -6,0.5 -22.5,2 Q 105,131 98,135.5 91,140 81.5,147 72,154 68,165.5 64,177 64,192 q 0,26 19,45 19,19 45,19 v 320 q 0,8 -0.5,35 -0.5,27 0,38 0.5,11 2.5,34.5 2,23.5 6.5,37 4.5,13.5 14,30.5 9.5,17 22.5,30 l 198,198 q 19,19 50.5,32 31.5,13 58.5,13 h 160 v 192 q 0,26 19,45 19,19 45,19 h 1024 q 26,0 45,-19 19,-19 19,-45 z"
       id="path3647"
       inkscape:connector-curvature="0"
       style="fill:currentColor" />
  </g>
  <path
     style="fill:#ffffff;stroke:#ffffff;stroke-width:1.34525549;stroke-miterlimit:4;stroke-dasharray:none"
     d="m 423.2041,1598.9283 c -45.7654,-11.526 -82.72891,-33.8889 -121.0197,-73.2167 -39.75318,-40.8297 -62.88513,-86.9096 -70.82581,-141.0879 l -5.2863,-36.0678 -74.04602,0 c -63.412754,0 -76.91912,-2.2599 -94.053096,-15.7375 -35.201301,-27.6894 -20.72704,-87.2689 24.704142,-101.6882 14.216687,-4.5122 14.971844,-14.364 17.651914,-230.2881 1.96592,-158.38806 5.64485,-232.35913 12.35181,-248.35397 13.959,-33.28962 241.81518,-260.66523 278.36982,-277.78272 24.63031,-11.53366 48.67732,-14.25427 127.18644,-14.3895 l 96.81356,-0.16677 0.24148,-108.20339 c 0.25176,-112.80038 3.0391,-123.93588 35.32713,-141.13258 21.53104,-11.4675 1039.11943,-12.69399 1069.11793,-1.2886 42.5802,16.18897 42.385,13.36033 40.1451,581.71348 l -2.052,520.67165 -21.3047,18.3231 c -16.7606,14.4148 -29.9422,18.3231 -61.7991,18.3231 l -40.4942,0 -5.0138,28.4746 c -16.5793,94.1575 -68.1912,165.9615 -147.0973,204.646 -36.588,17.9376 -52.511,21.1385 -103.9519,20.8969 -76.1856,-0.3576 -120.926,-18.9939 -176.1424,-73.3702 -42.6337,-41.9849 -66.174,-87.5997 -74.613,-144.5795 l -5.3418,-36.0678 -191.91988,0 -191.91992,0 -5.01381,28.4746 c -16.2758,92.434 -68.44653,166.1223 -143.66984,202.9256 -44.81932,21.9281 -120.38662,30.5468 -166.34475,18.9722 z m 116.14265,-130.7792 c 57.90685,-29.2536 84.57829,-88.8108 67.75352,-151.2932 -16.29111,-60.5006 -85.73995,-105.7604 -145.07968,-94.5485 -128.2232,24.2271 -151.31976,195.0618 -33.60045,248.5272 41.08927,18.6618 70.05843,17.9605 110.92661,-2.6855 z m 896.00005,0 c 57.9068,-29.2536 84.5783,-88.8108 67.7535,-151.2932 -16.2911,-60.5006 -85.74,-105.7604 -145.0797,-94.5485 -128.2232,24.2271 -151.3198,195.0618 -33.6005,248.5272 41.0893,18.6618 70.0585,17.9605 110.9267,-2.6855 z m -820.29594,-753.62708 0,-132.88135 -89.5592,0 -89.55921,0 -107.86452,108.79181 C 234.8386,784.46328 220.2034,802.49279 220.2034,823.31384 l 0,24.08954 197.42373,0 197.42373,0 0,-132.88136 z"
     id="path3334"
     inkscape:connector-curvature="0"
     transform="translate(0,-256)" />
</svg>
