<?xml version="1.0" encoding="UTF-8" standalone="no"?>
<svg
   xmlns:dc="http://purl.org/dc/elements/1.1/"
   xmlns:cc="http://creativecommons.org/ns#"
   xmlns:rdf="http://www.w3.org/1999/02/22-rdf-syntax-ns#"
   xmlns:svg="http://www.w3.org/2000/svg"
   xmlns="http://www.w3.org/2000/svg"
   xmlns:sodipodi="http://sodipodi.sourceforge.net/DTD/sodipodi-0.dtd"
   xmlns:inkscape="http://www.inkscape.org/namespaces/inkscape"
   viewBox="0 -256 1792 1792"
   id="svg3643"
   version="1.1"
   inkscape:version="0.91 r13725"
   width="100%"
   height="100%"
   sodipodi:docname="truck-blue.svg">
  <metadata
     id="metadata3653">
    <rdf:RDF>
      <cc:Work
         rdf:about="">
        <dc:format>image/svg+xml</dc:format>
        <dc:type
           rdf:resource="http://purl.org/dc/dcmitype/StillImage" />
        <dc:title></dc:title>
      </cc:Work>
    </rdf:RDF>
  </metadata>
  <defs
     id="defs3651" />
  <sodipodi:namedview
     pagecolor="#ffffff"
     bordercolor="#666666"
     borderopacity="1"
     objecttolerance="10"
     gridtolerance="10"
     guidetolerance="10"
     inkscape:pageopacity="0"
     inkscape:pageshadow="2"
     inkscape:window-width="1600"
     inkscape:window-height="847"
     id="namedview3649"
     showgrid="false"
     inkscape:zoom="0.13169643"
     inkscape:cx="862.37289"
     inkscape:cy="456.67801"
     inkscape:window-x="-8"
     inkscape:window-y="-8"
     inkscape:window-maximized="1"
     inkscape:current-layer="svg3643" />
  <g
     transform="matrix(1,0,0,-1,-30.372881,1224.678)"
     id="g3645">
    <path
       d="m 640,128 q 0,52 -38,90 -38,38 -90,38 -52,0 -90,-38 -38,-38 -38,-90 0,-52 38,-90 38,-38 90,-38 52,0 90,38 38,38 38,90 z M 256,640 H 640 V 896 H 482 q -13,0 -22,-9 L 265,692 q -9,-9 -9,-22 V 640 z M 1536,128 q 0,52 -38,90 -38,38 -90,38 -52,0 -90,-38 -38,-38 -38,-90 0,-52 38,-90 38,-38 90,-38 52,0 90,38 38,38 38,90 z m 256,1088 V 192 q 0,-15 -4,-26.5 -4,-11.5 -13.5,-18.5 -9.5,-7 -16.5,-11.5 -7,-4.5 -23.5,-6 -16.5,-1.5 -22.5,-2 -6,-0.5 -25.5,0 -19.5,0.5 -22.5,0.5 0,-106 -75,-181 -75,-75 -181,-75 -106,0 -181,75 -75,75 -75,181 H 768 q 0,-106 -75,-181 -75,-75 -181,-75 -106,0 -181,75 -75,75 -75,181 h -64 q -3,0 -22.5,-0.5 -19.5,-0.5 -25.5,0 -6,0.5 -22.5,2 Q 105,131 98,135.5 91,140 81.5,147 72,154 68,165.5 64,177 64,192 q 0,26 19,45 19,19 45,19 v 320 q 0,8 -0.5,35 -0.5,27 0,38 0.5,11 2.5,34.5 2,23.5 6.5,37 4.5,13.5 14,30.5 9.5,17 22.5,30 l 198,198 q 19,19 50.5,32 31.5,13 58.5,13 h 160 v 192 q 0,26 19,45 19,19 45,19 h 1024 q 26,0 45,-19 19,-19 19,-45 z"
       id="path3647"
       inkscape:connector-curvature="0"
       style="fill:currentColor" />
  </g>
  <path
     style="fill:#0000ff;stroke-width:0.17716534;stroke-miterlimit:4;stroke-dasharray:none"
     d="m 410.57628,1595.4738 c -50.79667,-16.8254 -74.79665,-32.3413 -112.69363,-72.8562 -41.21216,-44.0592 -58.04625,-78.6929 -64.8326,-133.3837 l -4.71106,-37.9661 -82.32563,-3.7967 c -74.997908,-3.4587 -83.615187,-5.3921 -96.813559,-21.7225 -7.968359,-9.8593 -14.487927,-26.3526 -14.487927,-36.6519 0,-20.9382 37.666747,-63.1171 56.365058,-63.1171 10.631028,0 11.992628,-25.3349 12.140688,-225.8983 0.15034,-203.66889 1.55057,-228.88712 14.22927,-256.27117 8.67613,-18.73914 60.237,-75.61372 134.6129,-148.4857 C 391.6146,458.59147 390.67271,459.06436 523.45725,459.06436 l 88.33937,0 0,-105.88165 c 0,-100.98024 0.84832,-106.8679 18.3256,-127.18645 l 18.32561,-21.30478 536.63697,0 536.6369,0 18.3256,21.30478 18.3256,21.30479 0,534.34749 0,534.34746 -20.0071,15.7376 c -15.0754,11.8583 -30.9848,15.7375 -64.5424,15.7375 l -44.5353,0 0,26.2915 c 0,73.9213 -65.5641,168.9227 -142.7327,206.8177 -37.238,18.2863 -52.3386,21.2422 -107.8435,21.1104 -82.6667,-0.1966 -128.1267,-19.2749 -182.2252,-76.4761 -43.4544,-45.9466 -60.5396,-80.3977 -67.4366,-135.9807 l -4.7111,-37.9661 -195.52543,-2.0265 -195.52543,-2.0265 0,26.4195 c 0,73.4786 -65.59056,169.1254 -141.42094,206.2257 -49.94497,24.4358 -133.0483,31.5931 -181.29092,15.6138 z m 115.30229,-119.401 c 29.08885,-10.9905 62.82028,-43.7581 75.46341,-73.3069 41.27235,-96.4598 -49.16342,-203.6703 -149.10269,-176.7594 -36.50176,9.8289 -77.97631,44.4176 -91.02035,75.9087 -14.03761,33.8898 -6.40125,98.2566 15.10861,127.3503 33.43071,45.2174 99.24197,65.8154 149.55102,46.8073 z m 896.00003,0 c 29.0888,-10.9905 62.8203,-43.7581 75.4634,-73.3069 41.2723,-96.4598 -49.1635,-203.6703 -149.1027,-176.7594 -36.5018,9.8289 -77.9763,44.4176 -91.0203,75.9087 -14.0377,33.8898 -6.4013,98.2566 15.1085,127.3503 33.4308,45.2174 99.242,65.8154 149.5511,46.8073 z m -810.08198,-762.63556 0,-132.88135 -85.32873,0 -85.32873,0 -108.29839,108.10517 c -95.1212,94.9515 -108.29839,111.11981 -108.29839,132.88136 l 0,24.77618 193.62712,0 193.62712,0 0,-132.88136 z"
     id="path3334"
     inkscape:connector-curvature="0"
     transform="translate(0,-256)" />
</svg>
